# xmcd
#
# Track frame offsets: 
#        150
#        18080
#        30942
#        48750
#        64097
#        78742
#        94382
#        110555
#        133150
#        145395
#        164642
#        177082
#
# Disc length: 2683 seconds
#
# Revision: 0
# Processed by: cddbd v1.4PL0 Copyright (c) Steve Scherf et al.
# Submitted via: ExactAudioCopy v0.95a4
#
DISCID=a00a790c
DTITLE=Brian Butler - Restless Street
DYEAR=1900
DGENRE=Blues
TTITLE0=Animule Hall
TTITLE1=Too Many Trips
TTITLE2=Restless Street
TTITLE3=Stars Across The Sky
TTITLE4=Wella Wella Baby
TTITLE5=Been There Done That
TTITLE6=Louise
TTITLE7=Big Fire Now
TTITLE8=Traveling Mood
TTITLE9=Sitting On Top Of The World
TTITLE10=Hellbound Train
TTITLE11=Storm Warning
EXTD=
EXTT0=
EXTT1=
EXTT2=
EXTT3=
EXTT4=
EXTT5=
EXTT6=
EXTT7=
EXTT8=
EXTT9=
EXTT10=
EXTT11=
PLAYORDER=
